Coordinates
version=1
nRows=24
nColumns=24
inDegrees=yes

Units are S.I. units (second, meters, Newtons, ...)
Angles are in degrees.

endheader
time	pelvis_tilt	pelvis_list	pelvis_rotation	pelvis_tx	pelvis_ty	pelvis_tz	hip_flexion_r	hip_adduction_r	hip_rotation_r	knee_angle_r	ankle_angle_r	subtalar_angle_r	mtp_angle_r	hip_flexion_l	hip_adduction_l	hip_rotation_l	knee_angle_l	ankle_angle_l	subtalar_angle_l	mtp_angle_l	lumbar_extension	lumbar_bending	lumbar_rotation
      0.98416667	     -5.77831900	     -1.26726288	     -2.45549850	     -0.05804550	      1.03137554	      0.26860818	     -7.30715863	      3.36732913	     -1.65328291	    -16.80030055	     20.42858664	      3.59368668	      4.71859732	     31.70921814	     -1.70161685	     -0.98421901	     -9.92882019	      6.90293721	      8.24617348	      3.26090010	    -10.60696174	      2.90642564	      4.57211826
      0.98833333	     -5.74776129	     -1.20196159	     -2.52058983	     -0.05193436	      1.03069240	      0.26830836	     -7.36539208	      3.20426291	     -1.74374850	    -17.49219839	     20.36843115	      3.87074696	      5.03533211	     31.80568190	     -1.56967813	     -0.78138266	    -10.77784041	      6.55324313	      7.95453488	      3.36491600	    -10.58048782	      2.75848245	      4.52728018
      0.99250000	     -5.69326914	     -1.12160554	     -2.57535826	     -0.04577462	      1.03011179	      0.26801099	     -7.45726191	      3.03239752	     -1.77112797	    -18.15647377	     20.16064563	      3.91818103	      8.45848126	     31.86413459	     -1.41708047	     -0.54132775	    -11.62026094	      6.12865579	      7.53242295	      4.39006141	    -10.56786124	      2.58584032	      4.46258184
      0.99666667	     -5.64611045	     -1.07520912	     -2.64780197	     -0.03965922	      1.02954295	      0.26770118	     -7.48976953	      2.88515188	     -1.82999323	    -18.92954324	     19.96632811	      4.11666570	      8.50173192	     31.97336769	     -1.32012404	     -0.43630773	    -12.57342886	      5.85299834	      7.39161303	      4.38906116	    -10.56269703	      2.47455735	      4.43613600
      1.00083333	     -5.63669622	     -0.98819461	     -2.70012879	     -0.03348726	      1.02894292	      0.26733470	     -7.46019992	      2.68620167	     -1.94927614	    -19.74866590	     19.83290017	      4.47160362	      8.62321638	     32.10932165	     -1.16692219	     -0.24544713	    -13.51184800	      5.51666239	      7.10365750	      4.38492291	    -10.51593221	      2.28795656	      4.37228727
      1.00500000	     -5.59950388	     -0.90455294	     -2.75355561	     -0.02730631	      1.02845528	      0.26695830	     -7.44201922	      2.48833639	     -2.05075102	    -20.59562719	     19.59926646	      4.73075659	      8.79198145	     32.20900107	     -1.01780116	     -0.05498777	    -14.45176791	      5.19204648	      6.77217638	      4.37465307	    -10.49244184	      2.11729780	      4.31124134
      1.00916667	     -5.55056905	     -0.81389556	     -2.80202594	     -0.02110685	      1.02803338	      0.26656006	     -7.41346014	      2.27731727	     -2.16468380	    -21.48436052	     19.32265137	      4.99106442	      9.00783109	     32.29516498	     -0.86130322	      0.12138642	    -15.40059808	      4.89619473	      6.45145431	      4.35723523	    -10.48081198	      1.93563909	      4.24284653
      1.01333333	     -5.50365354	     -0.72071183	     -2.84717794	     -0.01489590	      1.02765862	      0.26613362	     -7.35566336	      2.05718849	     -2.29068218	    -22.42019945	     18.99970950	      5.25859666	      9.27727579	     32.37901575	     -0.70134911	      0.29251132	    -16.35008496	      4.62755787	      6.12661662	      4.32969818	    -10.46507517	      1.75383951	      4.17486315
      1.01750000	     -5.43290119	     -0.62689671	     -2.88276125	     -0.00869308	      1.02738303	      0.26567433	     -7.30288516	      1.83520771	     -2.40157906	    -23.37931139	     18.55182722	      5.34750207	     13.70756798	     32.42114742	     -0.53050182	      0.50095934	    -17.27058375	      4.37227783	      5.73226720	      3.84982309	    -10.47542125	      1.57426504	      4.08394509
      1.02166667	     -5.35529144	     -0.52670292	     -2.92778505	     -0.00247979	      1.02715018	      0.26521069	     -7.21961830	      1.58827030	     -2.56549895	    -24.41547134	     18.15849212	      5.66917557	     13.78223373	     32.46821258	     -0.37244729	      0.58593137	    -18.22799420	      4.20016140	      5.54589448	      3.83216071	    -10.51263637	      1.39235198	      4.03666627
      1.02583333	     -5.28566830	     -0.41414190	     -2.97251078	      0.00374618	      1.02696860	      0.26472454	     -7.09813341	      1.32186084	     -2.72742949	    -25.50033478	     17.70587343	      5.96030561	     13.93192485	     32.49459864	     -0.19548496	      0.71126879	    -19.13138549	      4.03669074	      5.27000053	      3.79599115	    -10.52498406	      1.18928704	      3.96637969
      1.03000000	     -5.21410906	     -0.29751742	     -3.01029513	      0.00997937	      1.02684602	      0.26423033	     -6.95443253	      1.04777537	     -2.88574729	    -26.62369274	     17.18331150	      6.25496214	     14.13376064	     32.50064129	     -0.01266479	      0.82581635	    -20.00022788	      3.91851843	      5.01863691	      3.74769853	    -10.53628597	      0.97818266	      3.89266531
      1.03416667	     -5.06297232	     -0.16738168	     -3.02106083	      0.01617232	      1.02693021	      0.26364373	     -6.87534406	      0.74625641	     -3.09127002	    -27.76540740	     16.55656680	      6.46379381	     16.31087511	     32.37842020	      0.22219759	      1.05873186	    -20.77521938	      3.75246586	      4.54096608	      3.22908406	    -10.66532332	      0.76280220	      3.77630880
      1.03833333	     -5.01859569	     -0.05959142	     -3.08539295	      0.02237368	      1.02682949	      0.26318318	     -6.62552786	      0.46614304	     -3.23158031	    -29.01510961	     15.98540722	      6.74867850	     16.45662582	     32.40521307	      0.36030277	      1.00272383	    -21.64103889	      3.80477638	      4.55469082	      3.19621433	    -10.63499176	      0.57082624	      3.73805056
      1.04250000	     -4.94175873	      0.07094914	     -3.12444500	      0.02856240	      1.02686646	      0.26265180	     -6.38736777	      0.15027847	     -3.41772473	    -30.29418679	     15.34762222	      7.04933755	     16.70042712	     32.34624218	      0.55501213	      1.06044994	    -22.39795733	      3.80286888	      4.36144507	      3.13335973	    -10.65470060	      0.35298656	      3.67173770
      1.04666667	     -4.81584147	      0.22360241	     -3.16733979	      0.03471076	      1.02705965	      0.26213747	     -6.18035594	     -0.19158282	     -3.56404299	    -31.58242281	     14.56186842	      7.18020376	     19.99701658	     32.19047685	      0.78128006	      1.15538066	    -23.06450153	      3.82294424	      4.05469143	      2.25331659	    -10.74567007	      0.08675277	      3.54789046
      1.05083333	     -4.70869774	      0.31514293	     -3.19167742	      0.04082500	      1.02723606	      0.26159953	     -5.93161224	     -0.46568927	     -3.72037740	    -32.90387719	     13.75081190	      7.37363206	     20.01570761	     32.07606474	      0.93552559	      1.15793224	    -23.78045841	      3.96936858	      3.99633525	      2.24944025	    -10.80771757	     -0.07967208	      3.50890086
      1.05500000	     -4.63599027	      0.47223671	     -3.23366087	      0.04690811	      1.02739348	      0.26105461	     -5.58377006	     -0.83638130	     -3.91478064	    -34.33689980	     13.04004727	      7.72530851	     20.12619369	     31.94706539	      1.15543467	      1.17262788	    -24.38171799	      4.06696323	      3.87564840	      2.21474054	    -10.83486912	     -0.32672064	      3.43884704
      1.05916667	     -4.55654303	      0.61319531	     -3.27681501	      0.05294259	      1.02762505	      0.26052896	     -5.22398452	     -1.18405786	     -4.06121600	    -35.77699813	     12.23414831	      7.98355104	     20.38498709	     31.78403806	      1.36544177	      1.22111170	    -24.93427659	      4.22388017	      3.66442734	      2.12707789	    -10.87561535	     -0.56470675	      3.35628277
      1.06333333	     -4.42658507	      0.77869472	     -3.31163427	      0.05894365	      1.02801717	      0.26000915	     -4.89871488	     -1.55981167	     -4.20630737	    -37.22310356	     11.30164093	      8.06574193	     22.43077588	     31.52740570	      1.60920076	      1.26915593	    -25.40050075	      4.36841305	      3.43391971	      1.36797860	    -10.97582697	     -0.82382521	      3.25052435
      1.06750000	     -4.34281006	      0.91333890	     -3.35888344	      0.06490109	      1.02835556	      0.25953516	     -4.49214735	     -1.89955647	     -4.31798919	    -38.70892066	     10.38897611	      8.23153679	     22.44190739	     31.32194658	      1.79665150	      1.23189518	    -25.87643662	      4.62440199	      3.41952431	      1.36343418	    -11.02042096	     -1.04385414	      3.18819352
      1.07166667	     -4.25627135	      1.06526156	     -3.41066769	      0.07079745	      1.02872835	      0.25907194	     -4.05510655	     -2.26168763	     -4.42066804	    -40.23387399	      9.48184764	      8.36171649	     22.45882286	     31.08798727	      2.00441309	      1.20198912	    -26.29485981	      4.87185168	      3.33137185	      1.35088733	    -11.07422713	     -1.28763934	      3.11464391
      1.07583333	     -4.19684800	      1.22779190	     -3.46637684	      0.07663773	      1.02909418	      0.25861025	     -3.55537184	     -2.63913719	     -4.51898260	    -41.79539358	      8.59141175	      8.48856153	     22.51121286	     30.85905035	      2.22766677	      1.19377740	    -26.66041606	      5.10661752	      3.14533242	      1.29840387	    -11.09398456	     -1.54293129	      3.04018390
      1.08000000	     -4.09818392	      1.38345925	     -3.52540918	      0.08242537	      1.02958558	      0.25820081	     -3.08391766	     -2.99974515	     -4.58072346	    -43.34211274	      7.62537518	      8.51946604	     22.51640011	     30.56641817	      2.43838567	      1.16468499	    -26.98087653	      5.39471721	      3.05920943	      1.27776724	    -11.17200646	     -1.79197658	      2.96014401
